# AST/ASF file generated using VICON BodyLanguage
# -----------------------------------------------
:version 1.10
:name VICON
:units
  mass 1.0
  length 0.45
  angle deg
:documentation
   .ast/.asf automatically generated from VICON data using
   VICON BodyBuilder and BodyLanguage model FoxedUp or BRILLIANT.MOD
:root
   order TX TY TZ RX RY RZ
   axis XYZ
   position 0 0 0  
   orientation 0 0 0 
:bonedata
  begin
     id 1 
     name lhipjoint
     direction 0.610259 -0.730986 0.305356 
     length 2.50941 
     axis 0 0 0  XYZ
  end
  begin
     id 2 
     name lfemur
     direction 0.34202 -0.939693 0  
     length 7.48822  
     axis 0 0 20  XYZ
    dof rx ry rz
    limits (-160.0 20.0)
           (-70.0 70.0)
           (-60.0 70.0)
  end
  begin
     id 3 
     name ltibia
     direction 0.34202 -0.939693 0   
     length 7.60141   
     axis 0 0 20   XYZ
    dof rx
    limits (-10.0 170.0)
  end
  begin
     id 4 
     name lfoot
     direction 0.0673488 -0.185039 0.980421   
     length 2.04049   
     axis -90 7.62852e-016 20   XYZ
    dof rx rz
    limits (-45.0 90.0)
           (-70.0 20.0)
  end
  begin
     id 5 
     name ltoes
     direction 1.5356e-011 -4.21729e-011 1   
     length 1.02897   
     axis -90 7.62852e-016 20   XYZ
    dof rx
    limits (-90.0 20.0)
  end
  begin
     id 6 
     name rhipjoint
     direction -0.57612 -0.754205 0.315056   
     length 2.43216  
     axis 0 0 0  XYZ 
  end
  begin
     id 7 
     name rfemur
     direction -0.34202 -0.939693 0   
     length 7.42799   
     axis 0 0 -20   XYZ
    dof rx ry rz
    limits (-160.0 20.0)
           (-70.0 70.0)
           (-70.0 60.0)
  end
  begin
     id 8 
     name rtibia
     direction -0.34202 -0.939693 0   
     length 7.69484   
     axis 0 0 -20   XYZ
    dof rx
    limits (-10.0 170.0)
 end
 begin
     id 9 
     name rfoot
     direction -0.111837 -0.30727 0.945028   
     length 2.15769  
     axis -90 -7.62852e-016 -20   XYZ
    dof rx rz
    limits (-45.0 90.0)
           (-20.0 70.0)
  end
  begin
     id 10 
     name rtoes
     direction -1.53539e-011 -4.21878e-011 1   
     length 1.07391   
     axis -90 -7.62852e-016 -20   XYZ
    dof rx
    limits (-90.0 20.0)
  end
  begin
     id 11 
     name lowerback
     direction 0.00552624 0.990109 -0.140195   
     length 2.12403   
     axis 0 0 0   XYZ
    dof rx ry rz
    limits (-20.0 45.0)
           (-30.0 30.0)
           (-30.0 30.0)
  end
  begin
     id 12 
     name upperback
     direction 0.00361898 0.999976 -0.00584723   
     length 2.13232   
     axis 0 0 0   XYZ
    dof rx ry rz
    limits (-20.0 45.0)
           (-30.0 30.0)
           (-30.0 30.0)
  end
  begin
     id 13 
     name thorax
     direction -0.000331275 0.998253 0.0590847   
     length 2.17688   
     axis 0 0 0   XYZ
    dof rx ry rz
    limits (-20.0 45.0)
           (-30.0 30.0)
           (-30.0 30.0)
  end
  begin
     id 14 
     name lowerneck
     direction -0.0561561 0.979832 0.19177   
     length 1.64159   
     axis 0 0 0   XYZ
    dof rx ry rz
    limits (-20.0 45.0)
           (-30.0 30.0)
           (-30.0 30.0)
  end
  begin
     id 15 
     name upperneck
     direction 0.0827153 0.979385 -0.184293   
     length 1.68939   
     axis 0 0 0   XYZ
    dof rx ry rz
    limits (-20.0 45.0)
           (-30.0 30.0)
           (-30.0 30.0)
  end
  begin
     id 16
     name head
     direction 0.0278583 0.995936 -0.0856488  
     length 1.70207  
     axis 0 0 0   XYZ
    dof rx ry rz
    limits (-20.0 45.0)
           (-30.0 30.0)
           (-30.0 30.0)
  end
  begin
     id 17 
     name lclavicle
     direction 0.950993 0.301131 -0.0702275  
     length 3.41652  
     axis 0 0 0   XYZ
    dof ry rz
    limits (-20.0 10.0)
           (0.0 20.0)
  end
  begin
     id 18 
     name lhumerus
     direction 1 -4.48981e-011 -3.9662e-029   
     length 5.32955   
     axis 180 -30 -90   XYZ
    dof rx ry rz
    limits (-60.0 90.0)
           (-90.0 90.0)
           (-90.0 90.0)
  end
  begin
     id 19
     name lradius
     direction 1 -4.48925e-011 -9.0549e-027   
     length 3.69232   
     axis 180 -30 -90   XYZ
    dof rx
    limits (-10.0 170.0)
  end
  begin
     id 20
     name lwrist
     direction 1 -4.49007e-011 -1.49005e-026   
     length 1.84616   
     axis 9.0955e-015 90 90   XYZ
    dof ry
    limits (-180.0 0.0)
 end
  begin
     id 21 
     name lhand
     direction 1 -4.49016e-011 -2.98023e-026   
     length 0.536598   
     axis 1.90115e-014 90 90   XYZ
    dof rx rz
    limits (-90.0 90.0)
           (-45.0 45.0)
  end
  begin
     id 22 
     name lfingers
     direction 1 -4.48924e-011 -5.9578e-026   
     length 0.432619   
     axis 3.80223e-014 90 90   XYZ
    dof rx
    limits (0.0 90.0)
  end
  begin
     id 23
     name lthumb
     direction 0.707107 -6.34947e-011 0.707107   
     length 0.621157   
     axis -90 45 -3.84942e-014   XYZ
    dof rx rz
    limits (-45.0 45.0)
           (-45.0 45.0)
  end
  begin
     id 24 
     name rclavicle
     direction -0.955495 0.276497 -0.102848   
     length 3.36357  
     axis 0 0 0   XYZ 
    dof ry rz
    limits (-10.0 20.0)
           (-20.0 0.0)
  end
  begin
     id 25 
     name rhumerus
     direction -1 -4.48961e-011 3.30983e-027  
     length 5.23431   
     axis 180 30 90   XYZ
    dof rx ry rz
    limits (-90.0 60.0)
           (-90.0 90.0)
           (-90.0 90.0)
  end
  begin
     id 26 
     name rradius
     direction -1 -4.48965e-011 -6.63263e-027   
     length 3.55301   
     axis 180 30 90   XYZ
    dof rx
    limits (-10.0 170.0)
  end
  begin
     id 27 
     name rwrist
     direction -1 -4.48942e-011 -1.48958e-026   
     length 1.77651   
     axis 9.0955e-015 -90 -90   XYZ
    dof ry
    limits (-180.0 0.0)
  end
  begin
     id 28
     name rhand
     direction -1 -4.48977e-011 -2.97966e-026   
     length 0.772522   
     axis 1.90115e-014 -90 -90   XYZ
    dof rx rz
    limits (-90.0 90.0)
           (-45.0 45.0)
  end
  begin
     id 29
     name rfingers
     direction -1 -4.49135e-011 -5.96389e-026   
     length 0.622827   
     axis 3.80223e-014 -90 -90   XYZ
    dof rx
    limits (0.0 90.0)
  end
  begin
     id 30
     name rthumb
     direction -0.707107 -6.34969e-011 0.707107   
     length 0.894259   
     axis -90 -45 3.84942e-014   XYZ
    dof rx rz
    limits (-45.0 45.0)
           (-45.0 45.0)
  end
:hierarchy
  begin
    root lhipjoint rhipjoint lowerback
    lhipjoint lfemur
    lfemur ltibia
    ltibia lfoot
    lfoot ltoes
    rhipjoint rfemur
    rfemur rtibia
    rtibia rfoot
    rfoot rtoes
    lowerback upperback
    upperback thorax
    thorax lowerneck lclavicle rclavicle
    lowerneck upperneck
    upperneck head
    lclavicle lhumerus
    lhumerus lradius
    lradius lwrist
    lwrist lhand lthumb
    lhand lfingers
    rclavicle rhumerus
    rhumerus rradius
    rradius rwrist
    rwrist rhand rthumb
    rhand rfingers
  end

#!OML:ASF F:\VICON\USERDATA\INSTALL\rory3\rory3.ASF
:FULLY-SPECIFIED
:DEGREES
93
root -12.0059 17.735 -9.69973 3.27312 67.3623 2.96008
lowerback 11.2426 3.30115 1.02827
upperback 1.51626 4.53341 -0.198216
thorax -4.60679 2.23508 -1.46114
lowerneck -17.0567 -3.88971 -11.343
upperneck 35.4471 -3.05654 5.65374
head 15.7023 -1.72206 3.95398
rclavicle -4.6118e-014 -7.95139e-016
rhumerus -29.5958 -18.1577 -75.626
rradius 25.2728
rwrist 9.01664
rhand -15.3792 6.19673
rfingers 7.12502
rthumb 10.799 -23.5057
lclavicle -4.6118e-014 -7.95139e-016
lhumerus -32.2544 10.3111 75.2326
lradius 22.0831
lwrist -7.0942
lhand -19.562 28.3442
lfingers 7.12502
lthumb 6.76266 58.2162
rfemur 8.61861 -4.84802 15.5761
rtibia 16.8394
rfoot -15.7994 -26.4026
rtoes -0.0198873
lfemur -19.7301 5.45527 -20.5254
ltibia 24.3551
lfoot -1.40835 9.52989
ltoes 8.83422
94
root -11.9102 17.7282 -9.72426 4.18363 67.7658 4.04721
lowerback 11.2665 3.35399 0.543383
upperback 1.55457 4.54174 -0.276394
thorax -4.61083 2.24745 -1.27405
lowerneck -17.0154 -3.95026 -11.5836
upperneck 35.4725 -3.08896 5.73392
head 15.7195 -1.75568 4.02751
rclavicle 4.57205e-014 -6.36111e-015
rhumerus -29.7726 -18.2596 -75.6623
rradius 25.2458
rwrist 9.09007
rhand -15.3048 6.28753
rfingers 7.12502
rthumb 10.8708 -23.4111
lclavicle 4.57205e-014 -6.36111e-015
lhumerus -32.4797 11.0748 74.9119
lradius 21.5854
lwrist -7.97475
lhand -18.7485 28.3157
lfingers 7.12502
lthumb 7.54795 58.161
rfemur 8.97372 -4.82371 14.9903
rtibia 17.0704
rfoot -16.2213 -26.694
rtoes 1.63827
lfemur -19.4372 5.89003 -21.1934
ltibia 24.3916
lfoot -1.61075 8.44863
ltoes 9.62262
95
root -11.8065 17.7222 -9.74855 4.84934 68.1452 4.85103
lowerback 11.151 3.39461 0.203069
upperback 1.63107 4.55332 -0.325823
thorax -4.48898 2.2608 -1.12689
lowerneck -17.0098 -4.00036 -11.932
upperneck 35.4591 -3.10777 5.92183
head 15.7294 -1.7835 4.16809
rclavicle 1.799e-014 -8.74653e-015
rhumerus -29.8545 -18.3556 -75.7315
rradius 25.1882
rwrist 9.04442
rhand -15.4276 6.35011
rfingers 7.12502
rthumb 10.7523 -23.3547
lclavicle 1.799e-014 -8.74653e-015
lhumerus -32.6693 11.8953 74.6016
lradius 21.1315
lwrist -8.84368
lhand -17.7335 28.2713
lfingers 7.12502
lthumb 8.52748 58.0791
rfemur 9.22785 -5.1169 14.453
rtibia 17.4583
rfoot -16.0664 -26.8836
rtoes 2.26009
lfemur -19.0935 6.14783 -21.7249
ltibia 24.3862
lfoot -1.82771 7.47235
ltoes 10.0666
96
root -11.7036 17.7181 -9.77515 5.33485 68.6443 5.33928
lowerback 10.9845 3.41902 0.0961786
upperback 1.62986 4.56928 -0.413094
thorax -4.39894 2.27096 -1.14897
lowerneck -16.7926 -4.01693 -11.9225
upperneck 35.3463 -3.16744 5.94881
head 15.6296 -1.79982 4.16202
rclavicle -1.93318e-014 1.07344e-014
rhumerus -29.9571 -18.6285 -75.7876
rradius 25.0442
rwrist 9.0517
rhand -15.435 6.40135
rfingers 7.12502
rthumb 10.7452 -23.3038
lclavicle -1.93318e-014 1.07344e-014
lhumerus -32.8564 12.491 74.2584
lradius 20.7341
lwrist -9.10245
lhand -17.2015 27.7681
lfingers 7.12502
lthumb 9.04094 57.5543
rfemur 9.27097 -5.66117 14.0398
rtibia 18.0596
rfoot -15.4155 -27.032
rtoes 1.68837
lfemur -18.8264 6.50553 -22.1214
ltibia 24.2768
lfoot -2.0665 6.53068
ltoes 9.73522
97
root -11.6096 17.7159 -9.80336 5.99572 69.071 6.04958
lowerback 10.9786 3.47387 -0.121839
upperback 1.58989 4.61121 -0.520814
thorax -4.44491 2.29392 -1.14691
lowerneck -16.611 -4.04408 -11.8618
upperneck 35.4313 -3.22555 5.92627
head 15.6338 -1.81649 4.13611
rclavicle 2.8625e-014 -1.19271e-014
rhumerus -30.1369 -18.6471 -75.9316
rradius 25.0253
rwrist 8.95611
rhand -15.3237 6.38526
rfingers 7.12502
rthumb 10.8526 -23.3143
lclavicle 2.8625e-014 -1.19271e-014
lhumerus -33.0585 13.5207 73.674
lradius 20.229
lwrist -9.73922
lhand -16.7135 27.2891
lfingers 7.12502
lthumb 9.51179 57.0545
rfemur 9.219 -6.09902 13.5675
rtibia 18.8434
rfoot -15.2086 -27.101
rtoes 1.59135
lfemur -18.5035 7.12401 -22.6242
ltibia 24.0732
lfoot -2.19627 5.56986
ltoes 8.09436
98
root -11.5175 17.7195 -9.83053 6.91754 69.1529 7.14464
lowerback 11.0801 3.59726 -0.595681
upperback 1.57481 4.71211 -0.657259
thorax -4.54182 2.34998 -1.04798
lowerneck -16.586 -4.08309 -11.8547
upperneck 35.677 -3.24805 5.87466
head 15.7525 -1.83157 4.12151
rclavicle -3.86636e-014 9.14409e-015
rhumerus -30.3034 -18.7174 -76.1141
rradius 24.9753
rwrist 9.29098
rhand -15.2679 6.6677
rfingers 7.12502
rthumb 10.9064 -23.0291
lclavicle -3.86636e-014 9.14409e-015
lhumerus -33.3143 14.3802 73.1707
lradius 19.8603
lwrist -10.3412
lhand -16.8922 27.8492
lfingers 7.12502
lthumb 9.33936 57.6223
rfemur 9.13514 -6.16312 12.9444
rtibia 19.7563
rfoot -15.3758 -27.1527
rtoes 2.96832
lfemur -17.9783 7.6492 -23.247
ltibia 23.8201
lfoot -2.4334 5.0217
ltoes 6.57114
99
root -11.4273 17.7224 -9.85806 7.9272 69.0712 8.3313
lowerback 11.2064 3.75629 -1.10987
upperback 1.53922 4.85106 -0.844472
thorax -4.67378 2.42537 -0.988654
lowerneck -16.4667 -4.06993 -11.7663
upperneck 35.8088 -3.23019 5.80703
head 15.7836 -1.81975 4.08678
rclavicle 1.02126e-014 -1.39149e-015
rhumerus -30.3631 -18.8612 -76.3222
rradius 24.7473
rwrist 9.77088
rhand -15.3278 7.1228
rfingers 7.12502
rthumb 10.8486 -22.577
lclavicle 1.02126e-014 -1.39149e-015
lhumerus -33.5832 14.7391 72.7867
lradius 19.5774
lwrist -10.4913
lhand -17.0121 28.2604
lfingers 7.12502
lthumb 9.22369 58.0386
rfemur 8.93551 -6.20397 12.2215
rtibia 20.7508
rfoot -15.293 -27.1387
rtoes 4.72124
lfemur -17.4432 8.13518 -23.908
ltibia 23.5558
lfoot -2.72029 4.6218
ltoes 5.42728
100
root -11.3372 17.7265 -9.88761 8.04911 69.2586 8.4079
lowerback 11.1446 3.84301 -1.13632
upperback 1.48499 4.95939 -0.920705
thorax -4.69133 2.47857 -1.06737
lowerneck -16.2969 -4.06905 -11.8381
upperneck 35.8837 -3.26523 5.95742
head 15.7895 -1.82126 4.16447
rclavicle -2.045e-014 6.36111e-015
rhumerus -30.3305 -18.8646 -76.5454
rradius 24.6262
rwrist 9.85179
rhand -15.1086 7.07602
rfingers 7.12502
rthumb 11.06 -22.6126
lclavicle -2.045e-014 6.36111e-015
lhumerus -33.7715 15.3255 72.3346
lradius 19.1719
lwrist -10.9796
lhand -16.8071 28.0043
lfingers 7.12502
lthumb 9.42148 57.7737
rfemur 8.58127 -6.62571 11.9405
rtibia 21.7721
rfoot -14.8191 -27.0449
rtoes 6.10099
lfemur -17.1363 8.65674 -24.1911
ltibia 23.3088
lfoot -3.00278 4.03327
ltoes 4.03682
101
root -11.2469 17.7368 -9.9204 7.47501 69.7352 7.57225
lowerback 10.8832 3.80059 -0.740862
upperback 1.43156 4.95392 -0.891777
thorax -4.57165 2.46963 -1.23822
lowerneck -16.1735 -4.10554 -11.8597
upperneck 35.9502 -3.3223 5.97893
head 15.8022 -1.84345 4.17162
rclavicle -5.31501e-014 4.77083e-015
rhumerus -30.2512 -18.774 -76.8323
rradius 24.7107
rwrist 9.70307
rhand -14.8975 6.66376
rfingers 7.12502
rthumb 11.2636 -23.0138
lclavicle -5.31501e-014 4.77083e-015
lhumerus -33.9277 16.3234 71.8063
lradius 18.7394
lwrist -11.7516
lhand -16.8647 27.654
lfingers 7.12502
lthumb 9.36591 57.4259
rfemur 8.07987 -7.16759 12.1264
rtibia 22.8009
rfoot -14.2031 -27.0427
rtoes 7.40169
lfemur -17.0369 8.95903 -24.1169
ltibia 23.1036
lfoot -3.24082 3.39567
ltoes 3.26798
102
root -11.1557 17.7468 -9.95123 7.4158 70.0863 7.50117
lowerback 10.828 3.7708 -0.552107
upperback 1.42377 4.9321 -1.018
thorax -4.52229 2.4557 -1.46645
lowerneck -16.0883 -4.09863 -11.5958
upperneck 36.0556 -3.34774 5.84676
head 15.8259 -1.83435 4.06795
rclavicle -5.08143e-014 1.86858e-014
rhumerus -30.1402 -18.7572 -77.2531
rradius 24.7034
rwrist 9.88958
rhand -15.0199 6.60911
rfingers 7.12502
rthumb 11.1456 -23.0749
lclavicle -5.08143e-014 1.86858e-014
lhumerus -34.0998 17.5059 71.0177
lradius 18.381
lwrist -12.8067
lhand -16.5035 27.9779
lfingers 7.12502
lthumb 9.71442 57.7338
rfemur 7.75306 -7.63978 11.944
rtibia 23.8366
rfoot -13.7238 -26.8615
rtoes 9.51085
lfemur -16.7147 9.16008 -24.2714
ltibia 22.9602
lfoot -3.56631 2.93321
ltoes 3.49948
103
root -11.06 17.755 -9.9767 7.86102 70.2946 8.21009
lowerback 10.8685 3.78849 -0.777778
upperback 1.53607 4.92821 -1.12203
thorax -4.43696 2.45916 -1.44636
lowerneck -16.1414 -4.07833 -11.5486
upperneck 36.272 -3.28538 5.78873
head 15.9377 -1.80905 4.05717
rclavicle 7.94642e-014 -2.18663e-015
rhumerus -29.9134 -18.7891 -77.5735
rradius 24.6041
rwrist 10.3408
rhand -14.7322 6.93322
rfingers 7.12502
rthumb 11.4231 -22.7356
lclavicle 7.94642e-014 -2.18663e-015
lhumerus -34.3122 18.5111 70.4205
lradius 18.1665
lwrist -13.6759
lhand -16.2862 28.6274
lfingers 7.12502
lthumb 9.92405 58.3735
rfemur 7.64364 -8.11486 11.3715
rtibia 24.929
rfoot -13.2766 -26.5386
rtoes 12.2521
lfemur -16.0969 9.23861 -24.6574
ltibia 22.8556
lfoot -3.99243 2.70631
ltoes 3.45304
104
root -10.9686 17.7626 -10.0036 8.04796 70.6208 8.55086
lowerback 10.8556 3.80985 -0.951689
upperback 1.6191 4.94064 -1.09081
thorax -4.36027 2.46959 -1.31459
lowerneck -16.1804 -4.11982 -11.7088
upperneck 36.4722 -3.27085 5.79573
head 16.0543 -1.82356 4.10263
rclavicle -1.21706e-013 1.76918e-014
rhumerus -29.756 -18.9141 -77.659
rradius 24.5843
rwrist 10.898
rhand -13.9671 7.33743
rfingers 7.12502
rthumb 12.1608 -22.2891
lclavicle -1.21706e-013 1.76918e-014
lhumerus -34.5073 18.8329 70.3532
lradius 18.0632
lwrist -13.5563
lhand -16.5627 28.7201
lfingers 7.12502
lthumb 9.65727 58.4788
rfemur 7.37951 -8.59176 11.007
rtibia 26.1489
rfoot -12.7372 -26.4298
rtoes 14.3178
lfemur -15.5877 9.17492 -24.9152
ltibia 22.728
lfoot -4.3508 2.55744
ltoes 2.52424
105
root -10.8852 17.772 -10.0339 7.80933 71.0161 8.27797
lowerback 10.8538 3.78381 -0.819663
upperback 1.57698 4.92129 -1.06842
thorax -4.39447 2.45751 -1.36359
lowerneck -16.0503 -4.13341 -11.7999
upperneck 36.565 -3.27323 5.83219
head 16.0749 -1.83042 4.14031
rclavicle -6.41578e-014 1.09332e-014
rhumerus -29.7063 -18.849 -77.8022
rradius 24.6792
rwrist 11.1831
rhand -13.441 7.6311
rfingers 7.12502
rthumb 12.6681 -21.9647
lclavicle -6.41578e-014 1.09332e-014
lhumerus -34.7494 18.7499 70.3908
lradius 18.059
lwrist -13.0078
lhand -16.9938 28.7091
lfingers 7.12502
lthumb 9.24129 58.4866
rfemur 6.84306 -9.15055 10.9149
rtibia 27.495
rfoot -12.0362 -26.2999
rtoes 15.9848
lfemur -15.2665 8.99883 -24.9494
ltibia 22.557
lfoot -4.66411 2.43713
ltoes 2.47274
106
root -10.8036 17.7835 -10.0655 7.84239 71.4127 8.31078
lowerback 10.8804 3.70976 -0.724906
upperback 1.53347 4.83139 -1.10221
thorax -4.44506 2.41083 -1.44219
lowerneck -15.9608 -4.12257 -11.9411
upperneck 36.6768 -3.25506 5.96554
head 16.1156 -1.8233 4.23515
rclavicle 6.18717e-015 -4.27387e-015
rhumerus -29.6525 -18.4626 -78.1369
rradius 24.9624
rwrist 10.9716
rhand -13.5719 7.5361
rfingers 7.12502
rthumb 12.5419 -22.0675
lclavicle 6.18717e-015 -4.27387e-015
lhumerus -35.0429 19.0541 70.166
lradius 18.066
lwrist -13.0462
lhand -17.143 28.8606
lfingers 7.12502
lthumb 9.09731 58.6444
rfemur 6.22564 -9.76947 10.707
rtibia 28.9371
rfoot -11.2991 -26.0772
rtoes 17.7514
lfemur -14.8903 8.56575 -25.0484
ltibia 22.3449
lfoot -4.96168 2.35538
ltoes 4.40927
107
root -10.7224 17.794 -10.0962 8.09024 71.8478 8.68475
lowerback 10.9085 3.63533 -0.837766
upperback 1.61368 4.72262 -1.08373
thorax -4.38905 2.36029 -1.34312
lowerneck -16.0155 -4.12761 -12.0497
upperneck 36.7805 -3.22015 5.9978
head 16.1828 -1.81932 4.28161
rclavicle -1.10077e-014 1.49089e-015
rhumerus -29.4186 -18.5274 -78.3168
rradius 25.1476
rwrist 11.1655
rhand -13.6165 7.43338
rfingers 7.12502
rthumb 12.4988 -22.1728
lclavicle -1.10077e-014 1.49089e-015
lhumerus -35.2676 19.8073 69.9134
lradius 18.1407
lwrist -13.4016
lhand -16.8618 28.9791
lfingers 7.12502
lthumb 9.36869 58.7509
rfemur 5.69269 -10.2988 10.403
rtibia 30.4498
rfoot -10.7902 -25.7944
rtoes 18.304
lfemur -14.3746 8.03386 -25.2429
ltibia 22.0947
lfoot -5.21881 2.29381
ltoes 5.72822
